<?xml version="1.0" encoding="UTF-8"?>
<svg width="40px" height="40px" viewBox="0 0 40 40" version="1.1" xmlns="http://www.w3.org/2000/svg" xmlns:xlink="http://www.w3.org/1999/xlink">
    <title>Location icon</title>
    <g id="V1.1-shipping-template" stroke="none" stroke-width="1" fill="none" fill-rule="evenodd">
        <g id="Group-8">
            <g id="X/Icons/Map/Anchor-location/40-dp-Copy">
                <circle id="Oval" fill="#385ADC" cx="20" cy="20" r="16"></circle>
                <path d="M20,0 C8.954305,0 0,8.954305 0,20 C0,31.045695 8.954305,40 20,40 C31.045695,40 40,31.045695 40,20 C40,8.954305 31.045695,0 20,0 Z M20,4 C28.836556,4 36,11.163444 36,20 C36,28.836556 28.836556,36 20,36 C11.163444,36 4,28.836556 4,20 C4,11.163444 11.163444,4 20,4 Z" id="Oval" fill-opacity="0.3" fill="#2D4ABA" fill-rule="nonzero"></path>
            </g>
            <g id="place_white_24dp" transform="translate(11.000000, 11.000000)">
                <polygon id="Path" points="0 0 18 0 18 18 0 18"></polygon>
                <path d="M9,1.5 C6.0975,1.5 3.75,3.8475 3.75,6.75 C3.75,10.6875 9,16.5 9,16.5 C9,16.5 14.25,10.6875 14.25,6.75 C14.25,3.8475 11.9025,1.5 9,1.5 Z M9,8.625 C7.965,8.625 7.125,7.785 7.125,6.75 C7.125,5.715 7.965,4.875 9,4.875 C10.035,4.875 10.875,5.715 10.875,6.75 C10.875,7.785 10.035,8.625 9,8.625 Z" id="Shape" fill="#FFFFFF" fill-rule="nonzero"></path>
            </g>
        </g>
    </g>
</svg>